<svg preserveAspectRatio="xMidYMid meet" data-bbox="13 28.4 173.9 143.1" viewBox="13 28.4 173.9 143.1" height="200" width="200" xmlns="http://www.w3.org/2000/svg" data-type="color" role="presentation" aria-hidden="true" aria-label=""><defs>
    <style>#comp-jvcei3jf svg [data-color="1"] {fill: #F2B827;}
    #comp-jvcei3jf svg [data-color="2"] {fill: #574F4B;}</style></defs>
    <g>
        <path d="M103.7 80.9c-.3.5-.4.8-.6 1.1-7.4 18-14.7 36-22.1 54-.5 1.2-.1 1.7.9 2.3 13.8 8.3 27.6 16.7 41.5 25.1 4.4 2.6 8.8 5.3 13.3 8.1 7.1-20.3 14.1-40.2 21.1-60.3-18.2-10.1-36.1-20.2-54.1-30.3zm-7.9 59.4c-3.5 0-6.3-3.1-6.2-6.8 0-3.7 2.9-6.8 6.4-6.7 3.4 0 6.2 3.1 6.2 6.9-.1 3.7-2.9 6.6-6.4 6.6zm6.2-41c0-4.2 2.9-7.3 6.6-7.2 3.6.1 6.4 3.2 6.4 7.3s-2.9 7.1-6.6 7.1c-3.6 0-6.5-3.2-6.4-7.2zm9.7 26.2c0-4 2.8-7.1 6.5-7.1s6.5 3.1 6.5 7.3c0 4-2.8 7.1-6.5 7.2-3.6-.1-6.5-3.2-6.5-7.4zm17.1 34.1c-3.7 0-6.7-3.2-6.7-7.3 0-4 3-7.2 6.8-7.2 3.9 0 6.9 3.2 6.8 7.3 0 4.1-3 7.2-6.9 7.2zm12.9-34.7c-3.6 0-6.7-3.3-6.6-7.3.1-4 3-7.1 6.6-7.1 3.7 0 6.6 3.2 6.5 7.3 0 3.9-2.9 7.1-6.5 7.1z" fill="#F2B827" data-color="1"></path>
        <path d="M100.1 76.9l10.3-4.6c-4.8-14.2-10-29.1-14.9-43.3C80 37.5 64.7 45.8 49.4 54.2c6.6 20 13.2 39.8 19.8 59.7.5-.2.7-.4 1-.5 6.6-4.1 13.3-8.2 19.9-12.4l10-24.1zM80.2 96.1c-.5 4.1-3.4 6.8-6.6 6.2-3.4-.6-5.6-5.2-4.5-9.3.8-3.1 3.5-5.2 6-4.9 3 .4 5.2 3.6 5.2 7.4-.1.2-.1.4-.1.6zm6.6-45.3c-2.3-2.7-2.2-7.4.4-9.9 1.4-1.3 3-1.9 4.8-1.4 2.2.7 3.5 2.4 4 4.6.2.7.2 1.4.2 2.2.1 0 .2.1.2.1-.5 1.3-.8 2.7-1.5 3.8-1.9 3.2-5.7 3.4-8.1.6z" fill="#574F4B" data-color="2"></path>
        <path d="M57.9 86.5C54.5 76.3 51 66 47.5 55.7c-.3-.9-.5-1.7-1.9-1.7-9.5.4-18.9.8-28.4 1.1-1.2 0-2.4.2-3.7.3.2.6.3 1 .4 1.4l19.2 51.3c.5 1.3 1.3 1.4 2.3 1.6 7.1.9 14.3 1.9 21.4 2.8 3.4.4 6.8.9 10.3 1.3-.3-.8-.4-1.4-.6-1.9-2.8-8.5-5.7-16.9-8.6-25.4zm-30-14.4c-.6 1.2-1.5 1.6-2.8 1-3-1.4-5.3-7-4.1-10 .7-1.6 2.2-2 3.7-.9 2.5 1.9 3.5 4.6 3.7 7.9-.2.6-.2 1.4-.5 2zM40 102.6c-.5 2.1-2.1 2.7-3.8 1.3-2.4-1.9-3.4-4.5-4-7.8.6-1.1 1.1-2.5 2-3.1 1.4-.9 2.7.3 3.6 1.4 1.8 2.4 2.9 5.1 2.2 8.2zm8.1-30.4c-.7 1.7-2 2.2-3.7 1.3-3-1.6-5.3-7.3-4.2-10.5.7-2.1 2.5-2.7 4.3-1.4 2.7 2.1 3.7 5 4 8.5-.1.6-.1 1.4-.4 2.1zm11.6 32.3c-.5 1-1 2.5-1.9 2.8-.8.3-2.4-.4-3.1-1.1-2.4-2.4-3.4-5.5-2.8-8.9.2-.9 1-2.3 1.7-2.5.9-.2 2.3.3 3 1 2.2 2 2.9 4.7 3.1 7.5.1.5.2 1 0 1.2z" fill="#574F4B" data-color="2"></path>
        <path d="M185.9 98.6c-8.6 4.4-17.2 8.8-25.7 13.2-.6.3-1.2 1.2-1.5 1.9-5.5 15.3-11 30.7-16.4 46.1-1.3 3.8-2.7 7.5-4.1 11.5.5-.3.7-.3.9-.5 9.2-6.5 18.5-12.9 27.7-19.5.7-.5 1.2-1.4 1.5-2.2 4.4-11.9 8.8-23.9 13.1-35.8 1.8-4.9 3.6-9.8 5.5-15.1-.5.3-.8.3-1 .4zM152.8 150c-.7 3.5-2.5 6.6-4.9 9.2-.5.5-1.2.7-2.2 1.4 0-1.3-.1-2 0-2.7.8-3.5 2.6-6.5 5.1-9.1.4-.4 1.1-.5 1.6-.7.1.7.5 1.3.4 1.9zm14.8-22.2c-.7 4-2.5 7.4-5.6 10-.9.7-1.6.2-1.6-1.4.8-3.5 2.4-7 5.6-9.6 1-.7 1.7-.1 1.6 1zm8-11c-1 .8-1.8.1-1.6-1 .7-3.9 2.5-7.2 5.5-9.9.3-.3.9-.4 1.3-.2.3.1.4.7.5 1-.9 4.1-2.5 7.5-5.7 10.1z" fill="#F2B827" data-color="1"></path>
        <path d="M43.7 52.6c2.9-.1 5.6-.5 8.2-2C63.5 44.3 75.1 38.2 86.8 32c2-1.1 4-2.2 6.4-3.5-.7-.1-.9-.1-1.2-.1-9.1.7-18.3 1.4-27.4 2.3-3 .3-6 .1-8.9 1.5-11.4 5.8-22.9 11.4-34.4 17-2.7 1.3-5.4 2.7-8.3 4.1.4.2.5.2.6.2 10.1-.2 20-.6 30.1-.9zm14.9-13c-1.3 2.1-8.3 4.8-10.9 4.3 1.2-2.1 8-4.8 10.9-4.3z" fill="#574F4B" data-color="2"></path>
        <path d="M105.4 80.5c17.5 9.7 35.1 19.4 52.6 29.1.6.4 1.8.3 2.5 0 7.8-3.8 15.6-7.8 23.4-11.7 1-.5 1.9-1 3-1.6-.8-.5-1.3-.8-1.9-1.1-15.7-8.3-31.5-16.6-47.1-25-2.3-1.2-4.1-1.3-6.5-.4-8.9 3.4-17.8 6.7-27 10.1.5.2.8.4 1 .6zm58.5 9.5c.8-1.5 4.1-1.4 7.5.2 3.4 1.7 5.4 4.3 4.7 5.8-.8 1.5-4.1 1.4-7.5-.2-3.3-1.6-5.4-4.2-4.7-5.8zm-3.5 14.1c-.8 1.4-4 1.3-7.3-.2s-5.3-3.9-4.6-5.3c.8-1.4 4-1.3 7.3.2s5.4 3.9 4.6 5.3zm-12.1-22.2c.8-1.5 4.2-1.3 7.5.5s5.3 4.4 4.5 6c-.8 1.5-4.2 1.3-7.5-.5-3.4-1.8-5.4-4.5-4.5-6zm-15.2-8.7c.8-1.5 4.2-1.3 7.5.5s5.3 4.4 4.5 6c-.8 1.5-4.2 1.3-7.5-.5s-5.3-4.5-4.5-6zm-.9 16.7c.8-1.4 4.1-1.2 7.3.4s5.2 4.1 4.4 5.4c-.8 1.4-4.1 1.2-7.3-.4-3.3-1.6-5.3-4-4.4-5.4zm-16.8-8.8c.8-1.4 4.1-1.2 7.3.4s5.2 4.1 4.4 5.4-4.1 1.2-7.3-.4-5.2-4-4.4-5.4z" fill="#F2B827" data-color="1"></path>
    </g>
</svg>