<svg xmlns="http://www.w3.org/2000/svg" viewBox="0 0 154.1 110.013" height="200" width="200"><g xmlns="http://www.w3.org/2000/svg" transform="matrix(-1 0 0 -1 177 155)"><defs><style>#comp-kl93m75w svg [data-color="1"] {fill: #E0B548;}</style></defs><g><path d="M143.1 155c-18.6 0-37.4-13.8-37.4-40.1 0-31.3 22.8-60.5 54.2-69.5 5.4-1.5 11.2 1.2 13.5 6.2l.3.7c2.4 5.2.6 11.3-4.3 14.5-.5.4-1.1.7-1.6 1.1-4.3 3.3-6.9 8.1-7.2 13.5-.4 6.1 1.9 12.1 6.4 16.6 6.5 6.4 10 15 10 24.2.1 21.3-17.4 32.8-33.9 32.8zM163 53.8c-.2 0-.5 0-.7.1-27.7 7.9-47.8 33.6-47.8 61 0 20.5 14.4 31.2 28.6 31.2 12.5 0 25.1-8.2 25.1-23.9 0-6.8-2.6-13.1-7.4-17.9-6.3-6.3-9.6-14.8-9-23.4.5-8 4.3-15.1 10.7-20l2.1-1.5c1.2-.8 1.7-2.2 1.1-3.4l-.3-.7c-.5-.9-1.4-1.5-2.4-1.5zM60.3 155c-18.6 0-37.4-13.8-37.4-40.1 0-31.3 22.8-60.5 54.2-69.5 5.4-1.5 11.2 1.2 13.5 6.2l.3.7c2.4 5.2.6 11.3-4.3 14.5-.5.4-1.1.7-1.6 1.1-4.3 3.3-6.9 8.1-7.2 13.5-.4 6.1 1.9 12.1 6.4 16.6 6.5 6.4 10 15 10 24.2.1 21.3-17.4 32.8-33.9 32.8zM80.2 53.8c-.2 0-.5 0-.7.1-27.7 7.9-47.8 33.6-47.8 61 0 20.5 14.4 31.2 28.6 31.2 12.5 0 25.1-8.2 25.1-23.9 0-6.8-2.6-13.1-7.4-17.9-6.3-6.3-9.6-14.8-9-23.4.5-8 4.3-15.1 10.7-20l2.1-1.5c1.2-.8 1.7-2.2 1.1-3.4l-.3-.7c-.4-.9-1.4-1.5-2.4-1.5z" fill="#E0B548" data-color="1"></path></g></g></svg>